<svg version="1.2" xmlns="http://www.w3.org/2000/svg" viewBox="0 0 426.29 211.156" width="427" height="212"><style>.a{fill:#e1e6f4}</style><path class="a" d="m143.1 132.5c0 0-1.9-0.4-2-0.6-0.1-0.2-3.4-3.1-3.4-3-0.1 0-1.4-1.3-1.6-0.9-0.1 0.4-2.6 0.4-2.6 0.4l-2.6-0.7c0 0-1.1 0.8-0.9 0.5 0.3-0.3 0.1-2.2 0-1.9-0.1 0.3-4-1.7-4-1.7l-1.3 1.2v-1.5l-2.1-1.3 0.2-1.6-0.9-0.8c0 0-0.2 0.2-0.3 0.1 0-0.2-0.6-3.4-0.6-3.4l-3-2.5-3.7-0.1-3.3-1.9-0.7-1.6c0 0-2-0.9-2-1.1 0-0.3-0.5-0.1-0.7-0.2-0.1-0.1 0-0.9 0-0.9l-0.9-0.7-0.3-0.2-0.8-0.2-0.5-0.7c0 0 1.7-0.8 1.6-0.7-0.2 0-3.9 0.6-3.9 0.6l-0.4 0.7-1.7-0.9-2.9-0.2c0 0-2.1-0.8-2.1-1.1 0.1-0.2-0.6-1.1-0.6-1.1 0 0-0.5 1.1-0.6 1.3-0.2 0.1-1.6 1.3-1.6 1.3l0.1 1.9-1-1 0.7-1.1c0 0 0-1.2 0-1.4 0-0.2 0.9-0.6 0.9-0.6l-0.4-0.8c0 0-1.1 0.3-1.1 0.5 0 0.2-1.4 1-1.4 1l-1.7 0.7h-0.8c0 0-0.8 1.2-1 1.3-0.1 0.1-0.1 1.2-0.1 1.2 0 0-1.9 2.2-2 1.9-0.1-0.2-2.2-1.9-2.2-1.9l-2.4 0.3-1.3 0.7-1.7-1.1-1.3-2 0.1-2.4 0.7-2.7 0.3-1.7-1.8-1.3c0 0-3.6 0.3-3.6 0.1 0-0.2-2 0.1-1.9-0.1 0-0.2 0.7-1.3 0.7-1.5 0-0.2 0.5-1.6 0.5-1.6l0.7-1.5 1.1-3 0.6-1-3-0.2-1.8 0.7-1 3-5.1 1.4-1.3-1c0 0-0.1 0.6 0 0.3 0-0.3-1.6-2.4-1.6-2.4l-0.8-3c0 0 2.1-6 2-5.9-0.1 0.2 0.1-2.2 0.1-2.2l6.4-4.2 2.4 0.4 0.6 0.6 1.5-0.2 1.5-1.5 1.9 0.2 1.9-0.4 1.1 1.3 1.7-0.7 0.9 1 0.5 0.6v1l-0.4 1 0.4 2.1 1.2 1.7 0.8 0.3 0.9-2.6-0.2-2.5-0.4-2v-1.4l2.5-3 3.1-2.3 2.6-1.4 2.2-2.4-0.2-2.2 1-0.2 1-2.1 0.9 0.2 1.9-2.4 3.1-1 1.9-0.4 0.6-0.7-0.7-0.6 1.5-2.2 4.7-1.8 2.8-0.9-2.3 1.5 0.5 1.2 1.7-0.5 1.3-0.8 3.3-0.9c0 0 0.7-1.3 0.6-1-0.1 0.3 1.7-0.3 1.7-0.3l-0.4-0.7 0.2-1-1 0.4-1.4 1.5-2.4-0.1-1-1.6 1-1.4c0 0 1-2 0.9-1.9 0 0.1-1.6-0.4-1.6-0.4l-2.3 0.8c-0.2 0-2.5 1.3-2.4 1.1 0.1-0.2-1.1 0.7-1.1 0.7l3-2.5 1.3-0.1 1.4-1.4h6.9l2.3-0.4 3.1-1.7 0.3 0.3-1.4 1.2-1.6 1.7-1.5 1.7-0.8 1 2.4 0.1c0 0 2 0.1 2.1 0 0.3 0 0.3 0.9 0.3 0.9l1-0.8 0.6 1.4 1.8-1.4-0.6-1.5 0.5-1.5-2.1 0.1v-0.8c0 0-0.7-0.9-0.8-0.7-0.1 0.1 1.2-1.1 1.1-0.9 0 0.1-0.5-0.6-0.5-0.6l1.4-1.8-0.7-2.1-0.2-1-1.9-0.9-0.6-0.9-0.9-0.6 0.7-1.6-0.3-1.1c0 0-0.6-3.7-0.6-3.6-0.1 0.1-2.5 2-2.5 2l-2.5 1.3-1.4-1.1 0.2-1.5 1.1-1.1-1.9-0.6-0.1-0.5c0 0-1.6-1.7-1.8-1.5-0.1 0.1-0.5 0.5-0.5 0.5l-3.9-0.4-1.4 2.4-0.3 1.3c0 0-2.2 2.1-2.4 2.3 0.1 0 1.1 1 1.1 1l-0.9 2.1-3.4 2-1.6 0.2c0 0-1.1 3.7-1 4 0.1 0.2-1.4 0.9-1.4 0.9l-1 0.7-0.4-1.3c0 0-0.5-1-0.7-1.3 0.3 0.1 1.3 0.3 1.3 0.3l0.2-0.9-1 0.1 0.4-1.4 0.9-1.5-3.1-0.2-0.7-0.9-1.6-0.2-0.1-0.7-1-0.6-1.4-0.6-1.4 0.2-0.1-1.3 0.4-1.2-1.4-0.2c0 0 2.5-2.6 2.4-2.5 0 0.1 7.1-3.5 7.1-3.5l0.8-0.9 1.4-0.1 3-1.4 2.2-1.5 0.3 0.1-1.8 1.6-0.4 0.6-1.4 0.6 1.2 0.2-0.1 0.7 1.3-0.2 1.4-1.1 1.1 0.3 0.5 0.6 1.5-0.1-0.1-1.1-2.3-1.7-0.6-0.5-0.2-0.6 1 0.1 0.9 0.7 0.8-0.9 1.8-0.2 1.8-1.3-0.1-0.8 1.4-1.3-0.9-0.9 2.4-0.1 2.1 0.1c0 0 1-0.5 1.2-0.2 0.1 0.3 1.7 1.4 1.7 1.4l-0.6 0.5-2.5 0.3-0.5 1.2 1.7 0.3 1.4-1.5 1.5-0.1 0.3 1.5c0 0-1.7 0.9-2 1-0.2 0-1.2 0.5-1.2 0.5l-0.1 1.1-1.6 0.2-1.7-0.3h-0.7l-1.3 1 1 0.9c0 0 1.5-0.6 1.8-0.7 0.2-0.2 1-0.6 1.1-0.3 0.2 0.3 1.2 1.2 1.2 1.2l0.9 1.6 0.8 0.2 2.3 0.8c0 0 1.7 0.4 1.7 0.5 0 0.1-0.2-1-0.2-1l-1.2-1.5c0 0-0.1-0.4 0.3-0.3 0.5 0.1 1.5 1 1.5 1 0.2 0.1 1.4 0.8 1.4 0.8l0.4-1.3 1.1-0.7-0.4-0.7-0.6-0.7-0.7-0.8 0.1-0.9c0 0 0.2-0.1 0.4-0.2 0.1-0.1 0.7-0.5 0.8-0.3 0.1 0.2 1.3 1.8 1.3 1.8l1.1 0.2 0.6-0.9c0 0 1.5-0.1 1.5-0.1 0 0.1 0.1-0.7 0.1-0.7l1.4-0.4-2-1.7-1.1-0.5-0.8 0.2-0.8-0.9 0.8-0.8 0.4-1-1-1-1.4-0.3-0.4-0.8c0 0-1.3-0.2-1.4 0-0.2 0.1-1.1-1.1-1.1-1.1l-0.8-1c-0.1-0.1-0.5-0.5-0.8-0.4-0.2 0-2.7 0.1-2.7 0.1l-0.6 0.2-0.8-0.6-3.1 0.7-1.6 1.3c0 0-0.1-0.7 0-0.9 0.1-0.2 1.2-0.8 1.4-1 0.2-0.1-1.4-0.1-1.4-0.1 0 0-2.8 0.9-2.9 1.1-0.2 0.2-2.4 1.9-2.4 1.9l0.1 1.4 2 0.3 0.8 0.2-0.5 0.5-0.5 0.9-1.3 0.7-1.6 1.2-1.4 0.5-0.2-0.9 1.2-0.7c0 0-0.2-1.5-0.4-1.4-0.1 0.1-1.3-0.1-1.4 0.1-0.1 0.2 0.1-1.1 0.1-1.1l-0.1-1.3-0.3-0.9c0 0 1-0.9 1.2-0.9 0.2-0.1 2.1-0.2 2.1-0.2l3-1.7-2.5-0.2c0 0-2.3 0.1-2.4 0.3-0.1 0.3-1.7 1.9-1.7 1.9l-1 0.7-3.1 2-0.1 1.4-1.4-0.3-0.9-0.2-2.4 1v1.3l-4.4 0.2c0 0-2-0.3-2-0.6 0-0.3-0.8-0.9-1.1-0.9-0.2 0-2.9 0.9-2.9 0.9l-0.1 0.8-3.1-0.2c0 0-2.6 0.5-2.5 0.3 0-0.3-1.4-0.1-1.4-0.1l2.1-1-1.4-0.7-2.7-0.4-1.9-0.6-2.2 0.3-0.2-0.9-1.9 0.8-0.6-1.3-1.3 0.6c0 0-4.9 1-5.1 1.1-0.3 0-1.5-0.5-1.5-0.5l-1.5 0.7-2.8 0.2-1.2-0.8-2.3-0.5-2.6 0.1-4.8-0.8c0 0-2.7-0.4-2.5-0.5 0.2 0-1.5-0.4-1.5-0.4 0 0 0.1-0.2 0.1-0.4-0.6 0.3-5.3 1.1-5.3 1.1l-6.2 2-4.1 0.8c0 0 0.1 1.1 0.1 1.3 0.1 0.2 0.4 1.4 0.4 1.4l-1.1 0.2h-1.2l0.6-0.8-6.1 1.6 0.1 0.7-0.4 0.8 1.9 0.2 1.6 0.1c0 0 0.9-0.5 0.9-0.3 0 0.2-0.4 1.5-0.4 1.5l-1.9 0.2c-0.1-0.2-1.1 0-1.1 0 0 0-1.2 0.8-1.3 0.6 0-0.2-2.5 0.4-2.5 0.4l-2.8 1.6-1.1 1.7-0.1 1.1 2.1-0.3-1.2 1.6 1.4-0.1c0 0 1.6 0 1.7 0.3 0.1 0.2 0.9 0.1 0.9 0.2 0 0.1-14.3 5.6-14.4 5.5-0.1-0.2-2.2 0.9-2.2 0.9 0 0 2.7-0.5 2.9-0.5 0.2 0 4.3-0.9 4.3-0.9l1.9-0.6c0 0 4.1-1.1 4.2-1.3 0-0.2 2.9-1.7 3.1-1.7 0.1 0 1.1-0.4 1.2-0.2 0 0.3 4.1-1.1 4.1-1.1 0 0 1.4-1 1.3-1.1-0.1-0.2-1-0.7-0.7-0.8 0.2 0 2.4-0.3 2.4-0.3 0 0 3.2-1.3 3.1-1.2 0 0.2-3.2 2.4-3.2 2.4l4.6-0.9 1.8-0.8c0 0 1.6-0.7 1.4-0.5-0.1 0.1 1.8 0.7 1.8 0.9 0 0.1 4 0.7 4 0.7l1.2 1.8-0.2 2.4-0.1 2.9 2.1-0.3-0.5 2 0.1 3.1c0 0 0.1 1.2 0.1 1.3 0 0.2-1.6-0.3-1.6-0.3 0 0-0.3 1.4-0.1 1.5 0.2 0.2 2.1 2.2 2.1 2.2l-0.6 0.8-1.5 3.7-3.5 4.1-0.6 2.2-1.8 1.9 0.3 1.4c0 0-0.4 0.9-0.3 1.1 0.1 0.1 0.8 6.6 0.8 6.6l2.5 1.5 0.7 1.2 0.3 4.9 1.1 2.3-1.2 0.8 1.4 1.9 0.5 0.1 1.1 1.2-0.4 1.7 1.1 0.9 1.1 1.7 0.2 0.8 1-1-1-2.1c0 0-0.7-1.6-0.7-1.9 0.1-0.4-0.9-3.1-0.9-3.1 0 0-1-2-0.9-2.2 0.2-0.2-0.7-1.4-0.7-1.4l0.4-2.4 1.8 0.4c0 0 0.3 2.2 0.3 2.5 0 0.2 0.4 1.6 0.4 1.6l2.3 3.2-0.4 1.6 4.4 5.2-0.1 2.1-0.7 1 0.4 1.5 3.6 2.6 0.6-0.1 1.1 1.1 4 2 1.9 0.4 2.4-0.7 1.5 0.7 2.2 2.7 2.4 0.6 2.3 0.8h1.2l0.3 1.4c0 0 1.1 1.4 1.3 1.5 0.2 0.2 0.1 1.8 0.1 1.8l1 0.5 1.2 1.3 0.7 0.7 0.9 0.9 0.5-0.3 1.1 0.3 1.5 1.4 1.1-0.6-0.3-1.1 0.9-1h0.9l0.9 0.7-0.1 0.9 1.1 1.7v4.8l-0.9 1.6-1.3 0.9-0.1 1.4-1.4 0.6-0.5 1.9-0.9 1.7 0.2 1.4 1.2 1.1-1.1 1.1-0.7 1.1 0.7 2.3c0 0 0.3 1.1 0.3 1 0-0.1 1.2 0.8 1.2 0.8l2.1 4.2 2 2.9c0 0 3 6 3 6 0.9 0.7 7.4 5.3 7.4 5.3l1.1 5.9 0.3 12.2 1 3.5-0.4 7.1-0.3 1.5c0 0 1.2 2.2 1.2 2.5 0 0.3 0.3 3.1 0.3 3.1l0.9 3h1l-0.6-1.8 0.8 0.1 0.5 2.8 0.1 1.1-0.6-0.6-0.6 0.6-0.4 0.5 0.8 0.7-0.4 1.1-0.2 1.4 1.2 0.2 0.7 0.6-0.7 1.4c0 0 4.9 8.7 9 9.7 4.2 1 5.4 1.4 5.4 1.4l1.7-1 0.6-0.7-3.7-1.3-2.8-3-0.5-1.6 0.8-0.6-0.1-1.2c0 0 0-0.9 0.3-1.2 0.3-0.2 1-1.4 1-1.4l-1-0.5-1.6-1.6 0.2-1.8 0.9-0.6c0 0 0.1-1-0.1-1.2-0.1-0.3 0.3-1.5 0.5-1.5 0.3-0.1 0.9-1.1 0.9-1.1h-1.1l-0.6-0.2-0.8-1.3v-0.9l1.3 0.3 1.3-0.2 0.7-1c0 0-0.2-0.7-0.3-0.9-0.1-0.2 0.1-1.3 0.4-1.4 0.2 0 1.7 0.1 1.7 0.1l2.7-0.7c0 0 1-1.8 0.9-2.1-0.1-0.4-0.1-1.4-0.1-1.4 0 0 0-0.7-0.6-0.8-0.6-0.1-0.6-0.3-0.8-1-0.2-0.6-0.6-1.3-0.6-1.3l-0.8 0.2 0.7-0.8 1.6 1.2 2.4 0.4 1.8-1.8 1.3-3.1 0.5-2.3h1.2l1.3-2.3 0.5-2.2-0.4-2.6 0.5-1 4.2-2.8 3.1-1 1-0.8c0 0 1.6-2.1 1.6-2.4 0-0.2 0.7-3.3 0.7-3.3 0 0 0.7-3.7 0.6-3.9-0.1-0.3 0.2-3.5 0-3.5-0.2-0.1 0.1-1 0.1-1l3-4.3 1.4-3.3c0 0 1.1-1.6 0.9-1.9-0.1-0.4-1-3.1-1-3.1zm-101.4-118.4q0.1 0 0.1 0c0-0.1-0.1 0-0.1 0zm132.9 1.8c0 0 0.5-2.4 0.1-2.6-0.4-0.3 1.4-1.7 1.4-1.7 0 0 2.7-1.2 2.8-1.6 0.1-0.3-0.7-0.2-0.7-0.2l0.2-1.8 1.7-0.6c0 0-1-1.4-1.2-2.1-0.2-0.8 2.9-1.1 2.9-1.1l5.5-2.5-6.6 0.7-0.3-0.8-6.9-1.6-13.8 0.5-1.6 0.8h-4.8l-6.7 0.6c0 0-6.3 0.8-6.7 1.1-0.3 0.2 0.7 0.6 0.7 0.6l-0.1 0.8-7.7 1-0.5 0.8c0 0 0.8 0.9 0.9 1 0.2 0.1 3.4 0.8 3.4 0.8l3.8 0.5c0 0 2.2 0.9 2.5 1.3 0.4 0.4 0.3 1.4 0.1 2-0.1 0.6-0.4 0.7-0.9 1.5-0.5 0.7 0.9 0.3 0.9 0.3l1.7 0.9c0 0-0.5 0-1.2 0.1-0.7 0.1-1.7 0.3-1.7 0.3l-0.1 1.4 2.4-0.5-0.2 0.8-1.7 0.4-1.7 2-0.1 3.8 0.4 3.3 0.9 2.6 1.6 0.2 1.8 1.1 2.4-0.1 2.3-3.3 2.6-2.3 0.7-1.4 1.2-0.7 2.6-0.6 3.3-0.7c0 0 3.2-2 3.5-2.3 0.4-0.2 9-2.8 9-2.8zm151.5 82c0-0.2 1.2-0.7 1.2-1 0-0.3 0.8 2.6 0.8 2.6l0.6 2c0 0 0.4 1.4 0.6 1.7 0.1 0.3 0.4 2.1 0.4 2.3 0 0.1 0.5 1.2 0.3 1.3-0.3 0.1-0.7 0.1-0.6 0.2 0.1 0.2 0.3 1 0.3 1.2 0 0.2-0.1 1.2-0.2 1.4-0.1 0.2-0.1 0.8-0.1 1 0 0.2 0.1 0.7 0.1 0.8 0 0.1 0.1 0.3 0.1 0.3 0 0 0.2 0.1 0.3-0.1 0.1-0.2 0.7-0.3 0.7-0.2 0.1 0.1 1 1.1 1.1 1.5 0.1 0.3 1.1 1.8 1.2 2 0.1 0.2 0.6 0.7 0.3 1.1-0.3 0.5-0.3 0.5-0.3 0.8 0.1 0.2 0.2 1.1 0.6 1.6 0.4 0.4 1.2 1.4 1.2 1.4 0 0 1.1 0.7 1.2 0.9 0.2 0.2 1.3 0.3 1.5 0.8 0.1 0.5 0.4 0.9 0.4 0.9 0 0 0.9 0.3 0.9 0.4 0-0.1 0-1.5-0.1-1.6-0.1-0.2-1.1-2.2-1.2-2.3-0.1-0.1-0.3-0.4-0.2-0.9 0.1-0.6-0.1-1.9-0.1-1.9l-1.8-2.2c0 0-1.7-1.6-1.7-1.5-0.1 0-1.3-0.5-1.2-1 0-0.5-0.2-1.7-0.5-2-0.4-0.2-0.7-0.7-1-0.8-0.3-0.2-0.1-1.7 0-1.9 0.1-0.2 0.7-2 0.7-2.1 0-0.1 0.2-1.7 0.2-1.7 0 0 0.5-0.7 0.6-0.5 0.1 0.3 0.7 0 0.5 0.7-0.1 0.8-0.1 1.2-0.1 1.2l1.5-0.3 1 1.1 0.7 0.9 0.9 0.6c0 0 0.2 1.1 0.4 1.1 0.1 0.1 0.7-0.2 0.7-0.2l0.9 0.6c0 0-0.5 1-0.4 1.2 0.1 0.3 0.2 1.1 0.2 1.1l0.9-0.7 1.1-0.9 0.6-0.7 0.2-0.6 1.6-0.7 1.5-1.4-0.1-3-0.4-1.8-1.4-1.9-2.6-2.6-1.1-1.3c0 0-0.7-0.9-0.6-1.2 0-0.2 0.2-1.5 0.2-1.5l0.7-0.7 1.4-1.4c0 0 0.9-0.6 1.1-0.4 0.2 0.1 1.4 0.1 1.5 0.2 0 0.1 0.2 0.1 0.1 0.3-0.1 0.3 0 1.3 0.1 1.5 0.2 0.1 0.4 0.2 0.6 0.2 0.1 0.1 0.5-0.1 0.5-0.3 0.1-0.3 0-1.1 0-1.3 0.1-0.2 0.1-0.2 0.3-0.2 0.1-0.1 0.7 0 0.7 0l0.6-0.7 1.1 0.4 1.2-1c0 0 0.7-0.1 0.7 0 0.1 0 1.2-0.8 1.2-0.8l1-0.3 1-0.4c0 0 0.4-0.9 0.4-0.8 0 0.1 2.3-2.3 2.3-2.3l0.8-1.9 0.9-2.6 0.5-3.3 0.1-1c0 0-0.9 0.7-1 0.8-0.1 0-0.9-0.2-0.9-0.2l0.6-1c0 0 0.3-0.7 0.2-0.7-0.2-0.1-1-0.3-1-0.3 0 0 0.3-0.8 0.4-0.9-0.1 0-1.4-1.3-1.4-1.3 0 0-1.7-2.5-1.8-2.3-0.1 0.2-1.5-1-1.6-1-0.1 0-0.2 0.1-0.3-0.2 0-0.2 1.2-1.9 1.3-2 0-0.1 1.1-1.4 1.3-1.3 0.2 0 0.9 0 0.9 0 0 0-0.2-0.7-0.3-0.8-0.1 0-2.8-0.3-2.8-0.3 0 0-1.1 0.7-1.1 0.8-0.1 0.2-0.9 0.1-0.9 0.1l-0.2-0.9-1-0.5-1.3-0.5 0.1-0.8c0 0 0.7-0.3 0.9-0.4 0.1 0 1-0.5 1.1-0.9 0.1-0.4 0.7-1 0.8-1.2 0.1-0.1 0.6-0.5 0.7-0.4 0.1 0 0.9 0.6 0.8 0.6-0.1 0.1-0.6 0.9-0.5 1.1 0.2 0.3 0.7 1 0.6 1.1 0 0.1-0.3 0.6-0.3 0.6l0.6-0.1c0 0 0.8-0.6 0.7-0.7 0-0.1 0.6-0.7 0.7-0.7 0.2 0 1.5-0.3 1.5-0.2 0.1 0.1 1.4 0.4 1.4 0.4l0.2 2.4c0 0 3.2 0.8 3.2 1 0 0.2-0.4 0.5-0.4 0.5 0 0 0 0.6 0.2 0.7 0.1 0.1 0.6 0.5 0.8 0.7 0.1 0.2 0.3 1.2 0.3 1.2 0 0-0.4 1-0.3 1.1 0 0.1 0.8 0.9 0.8 0.9l2.3-0.9c0 0 1.2-1 1.2-1.1 0-0.1-1.3-3.3-1.3-3.3l-3-2.1-1.3-1.1 1.8-1.7-0.1-1.6c0 0 0.4-1.5 0.4-1.5 0.1 0 1.2-0.8 1.2-0.8l1.3 0.9 1.9-1.2 1.1-3.9v-5l-1.7-3.1c0 0-0.8-1.8-0.9-1.8-0.1 0-1.3-1.8-1.3-1.8l-2.6-1.2-1.2-0.1-0.7 1.2-0.8-0.9-1-1.8 0.1 1.1c0 0 0.2 0.7 0.1 0.9 0 0.1-0.8-1-0.8-1 0 0-1.2-0.3-1.3-0.3-0.1 0-0.7-0.3-0.7-0.3 0 0 1.8-2.2 1.7-2.1-0.2 0 0.3-2.8 0.3-2.8 0 0 0.7-1.4 0.7-1.3 0.1 0.1 2.6-0.3 2.6-0.3 0 0 4.8-0.1 4.7 0 0 0.1 2.4-0.1 2.4-0.1 0 0 0 0.6 0.2 0.7 0.2 0.1 2.1 0 2.1 0l1.4-0.3 0.7-0.1c0 0-0.8-0.9-0.9-0.9-0.2 0-1-0.3-1-0.4-0.1 0 0.6-1.5 0.5-1.8 0-0.2-0.1-1 0.2-0.9 0.3 0 2.5 0 2.5 0 0 0 0.9 0.9 0.9 1.1 0 0.2 1.4 1.1 1.4 1.1 0 0 0.7-0.9 0.8-1 0.1-0.1 0.5-0.6 0.6-0.7-0.2-0.1-0.8-0.9-0.8-0.9 0 0 0.7-0.8 1-0.4 0.4 0.4 1.2 2.1 1.2 2.1 0 0-0.7 1.8-0.7 2 0 0.1-0.3 1.8-0.3 1.9 0 0.1-0.8 0.8-0.8 0.8 0 0-0.4 0-0.4 0.2 0 0.2 0.6 1.3 0.6 1.3 0 0 0.2 1.2 0.3 1.3 0.1 0.1 4.1 3.5 4.1 3.5l2.6 2.6 1.6 1.4 0.5-0.1c0 0 0.4-2 0.3-1.9-0.2 0.1-0.8-0.6-0.8-0.7 0.1-0.2 0.3-0.7 0.5-0.7 0.2 0.1 0.8 0.2 0.8 0.2l-1.2-1.5 0.4-0.9 0.9 0.3-1.2-1.3-0.7-1.3c0 0 0.7 0.2 0.7 0.3 0.1 0.1 0.8-0.5 0.6-0.5-0.3-0.1-1.7-0.6-1.7-0.7 0-0.1-0.8-0.3-0.9-0.5 0-0.2 0.2-0.8 0.1-0.8-0.2 0-1.4-0.6-1.4-0.6l-0.8 0.2-0.4-0.9 0.2-0.7c0 0-0.8-1.1-0.8-1.1 0 0 1.7-0.6 1.8-0.7 0 0 0.8 0 0.9 0.3 0.1 0.3 0.4 0.6 0.4 0.6l0.8-0.8c0 0 0.6-0.5 0.9-0.4 0.2 0.1 1.4 0.4 1.5 0.5 0.2 0.2 0.9 0.4 1 0.5 0-0.2 0-0.7 0-0.7l0.1-0.4 1.1-1.5c0 0 0.4-0.7 0.8-0.8 0.4 0 1.3-0.7 1.4-0.6 0.2 0.1 1.5 0.1 1.7 0.4 0.1 0.4 0.8-0.1 0.8-0.1 0 0-0.7-0.8-0.7-0.8 0 0.1-2.2-0.8-2.3-0.8-0.2 0-1.6-0.9-1.6-0.9 0 0-0.8-0.3-0.8-0.3-0.1 0 0.6-0.3 0.8-0.4 0.2 0 0.8-0.8 0.8-0.8 0 0-0.3-0.5-0.4-0.7-0.2-0.1 0.8 0 1.2 0.1 0.4 0.2 2.2 0.3 2.1 0.4 0 0.1 1.2 0.1 1.2 0.4-0.1 0.4 0.4 0.4 0.6 0.6 0.1 0.2 1.6 0.4 1.7 0.4 0.1 0.1 1.6-0.1 1.6 0.2 0 0.2 0.5-0.1 0.5-0.1 0 0-0.3-1.1-0.5-1.1-0.3 0.1-0.8-0.3-0.5-0.4 0.4 0 1.1-0.4 0.9-0.5-0.2-0.1-0.6-0.5-1-0.7-0.5-0.2-2.4-0.6-2.6-0.5-0.2 0-3.2-0.7-3.4-0.7-0.2 0-1.2-0.3-1.2-0.3l-10.2-2.7c0 0-6.4-0.7-6.3-0.8 0-0.1-3.7-0.4-3.7-0.4l2.2 1.8-2.2-0.3c0 0-2.7-0.5-2.8-0.6-0.1-0.1-7.6-0.1-7.6-0.1l-1.1-1.2c0 0-3.6-0.6-3.7-0.7-0.1 0-4.6 0-4.6 0l-3.7-0.5c0 0-2.5-1.1-3.1-1-0.5 0.1-6-0.4-6.3-0.5-0.4-0.2-2.5 0.1-2.5 0.1l1.7 1.4-2.9-0.1h-2.9l-1.2-0.6 0.1 1.7c0 0-0.9 0.1-0.9-0.1 0-0.2-2.5-1.1-2.5-1.1 0 0-2.2-1.9-2.2-1.8-0.1 0.1-3.5-0.7-3.5-0.7l-2.2-0.4c0 0-0.6 0.3-0.6 0.5 0.1 0.1 1 0.7 0.8 0.8-0.1 0.1-1.4-0.1-1.4-0.1l-3.4-0.1-0.6-0.7-4.4 0.1c0 0-1.7-1.3-1.7-1.3-0.1 0.1-1.3 0.3-1.3 0.3l-1 1.1-2.7 0.2 2.9-1.6 1.1-0.8c0-0.2-0.8-1.4-0.9-1.2-0.2 0.2-2.4-0.6-2.6-0.6-0.1 0-3.5 0-3.5 0-0.3-0.1-1.3 0-1.3 0 0 0-0.4-1.1-0.6-1.1-0.2 0-2.8 0-2.8 0 0 0-2.3 0.4-2.4 0.7-0.1 0.2 0.4 0.4 0.4 0.4 0 0-1.2 1-1.3 0.9-0.1-0.1-3.7-0.1-3.7-0.1 0 0-5 1.1-5 1 0-0.1-1.5 0.5-1.8 0.6 0.3 0.3 1.3 0.9 1.2 1-0.2 0.2-3.6 0.4-3.7 0.1-0.1-0.2-1.4 0.3-1.6 0.3 0.2 0.1 1.8 1.4 1.9 1.5 0.1 0.2 0.4 0.5 0.8 0.4 0.4-0.2 0.8-0.4 0.8-0.2 0.1 0.2 0 0.5 0 0.5 0 0-1 0.2-1.1 0.2-0.1 0-1.3-0.7-1.4-0.7-0.1 0-1.7-0.4-1.9-0.4-0.2 0-1.1 0.1-1.1 0.1 0 0-0.7 0.6-0.5 0.7 0.2 0.1 0.5 0.8 0.7 0.8 0.1-0.1 0.8-0.4 0.8-0.1 0.1 0.4-0.8 0.7-0.8 0.7 0 0-1.2-0.5-1.2-0.6-0.1-0.2-0.6-0.8-0.6-1.2 0-0.4-0.7-1.6-0.9-1.4-0.2 0.2-1 0.2-1 0.2l0.9 0.8c0 0 0.8 0.7 0.6 0.7-0.2 0.1-0.8 0.4-0.8 0.5-0.1 0.1-0.5 0.8 0 0.8 0.5 0 1.4 0.8 1.4 0.8 0 0 0 1.1 0.1 1.2 0.1 0.2 1.3 1 1.3 1 0 0 0.8-0.5 0.9-0.6 0.1-0.1 1.1-0.3 1.4-0.1 0.2 0.3-0.5 0.9-0.7 0.8-0.2-0.2-0.6-0.3-0.8-0.2-0.2 0.1-0.2 0.1-0.2 0.1 0 0-0.3 0.6 0 0.7 0.2 0.1 0.6 0.5 0.6 0.7-0.1 0.2-0.8 1.6-0.8 1.6l-1.2 0.2c-0.3-0.1-1-0.3-1-0.3l1.2-1 0.2-1.2c0 0 0-0.1-0.3-0.4-0.3-0.2-1.4-1.2-1.4-1.2 0 0-0.7-1.1-0.7-1.3 0-0.1-0.3-0.7-0.3-0.7 0 0-0.8-0.5-1-0.5-0.1-0.1-0.1-0.5 0-0.8 0.1-0.2-0.1-1.3-0.2-1.1 0 0.1-1.4-0.1-1.5-0.1-0.2 0-0.5-0.5-0.5-0.5 0 0-0.2-0.6-0.5-0.4-0.4 0.3-0.9 0.4-0.9 0.4l-0.6 1.5 0.2 0.6-1.1 0.8c0 0 0.9 0.8 1 0.8-0.1 0 0 0.8 0.1 1 0 0.2 1.7 0.7 1.7 0.7 0 0 0.9 0.3 0.9 0.7 0.1 0.3-0.2 0.8-0.2 0.8l-1.7-0.8-3.8-1.2c0 0-3.7-0.2-3.6-0.4 0.1-0.1-1.4-0.9-1.4-0.9l-0.8 0.4c0 0 0.8 0.6 0.9 0.6 0.1 0.1 1.3 0.5 1.3 0.5 0 0 0.4 0.2 0.5 0.5 0 0.3-0.7 0.7-0.7 0.7 0 0-0.5-0.5-0.5-0.7 0-0.1-0.2-0.5-0.3-0.5-0.2 0.1-1.6 0.9-1.6 0.9 0 0-1.7 0-1.9 0.2-0.2 0.1-1.3 0.9-1.4 0.7-0.1-0.2 0.2-1.1 0.2-1.2-0.1-0.2-1.7 0.3-1.7 0.3 0 0-2.1 0.6-2.2 0.8-0.1 0.2-1 0.4-1.2 0.5-0.2 0-0.4 0-0.4 0 0 0-0.8 0.5-0.6 0.8 0.1 0.3-1.2 0.5-1.2 0.5 0 0-0.8-0.6-0.9-0.7 0-0.1 0.9-0.7 1-0.8-0.1 0.1-1-1-1.1-1.1-0.1 0-2.3 0.1-2.6 0.1 0.2 0 1 0.8 1 0.9 0 0.1 0.1 1.3 0.1 1.3 0 0 0.6 0.4 0.7 0.3 0.2 0-0.1 0.7-0.1 0.7l-1-0.1c0 0-0.5-0.6-0.8-0.3-0.4 0.4-1.6 1.3-1.7 1.2-0.1-0.1-0.7 0.1-0.7 0.3 0.1 0.3 0.6 0.8 0.6 0.8 0 0-0.8 0.6-0.7 0.4 0.1-0.3-2.1-0.8-2.2-0.8-0.2 0.1-1.1 0.3-1.1 0.3l0.4 0.7c0 0 1.2 0.1 1.3 0.3 0.2 0.3-0.2 0.8-0.4 0.8-0.1 0-2.9-1.4-2.9-1.4 0 0-0.9-0.9-0.6-1.2 0.3-0.3 0.5-0.7 0-0.7-0.5 0-1.1-0.4-1.1-0.6-0.1-0.1 3.1 0.4 3.1 0.4l1.9 0.2c0 0-0.3 0.2 0.4 0 0.7-0.3 1.9-0.9 2.1-0.9 0.2-0.1 0.4-0.8 0.4-0.8l-0.3-0.7-6.8-1.6c0 0-2.3-0.7-2.3-0.8-0.1-0.1-2.1-0.3-2.1-0.3l-0.9 0.1 0.8-1c0 0-3.1-0.9-3.2-0.8-0.1 0.1-1.4 0.7-1.4 0.7l-2.4-0.4-3 0.7-3.1 0.8-4.5 1.9 1.6 0.1-0.7 1.3-2 1.5-1.1 1.8-0.1 1-1.1 1.1c0 0-0.8-0.4-0.9-0.5-0.2-0.2-2.8 0.7-2.8 0.7l-1.6 1.5c0 0-0.4 0.8-0.5 1-0.1 0.2 0.1 2.3 0.1 2.3 0 0 1 0 0.7 0.3-0.3 0.3-0.2 1.6-0.2 1.6l1.1 0.7c0 0 1.4 0.5 1.7 0.4 0.1 0 0.9-0.5 1-0.6 0.1 0 1-0.9 1.3-0.9 0.2 0.1 1-0.7 1-0.4 0.1 0.2 0.3 1.2 0.4 1.5 0.2 0.2 0.7 0.6 1 1.2 0.2 0.6 0.6 1.1 0.5 1.2-0.1 0.2-0.7 0.7-0.7 0.7 0 0-1.2 0.2-1.3 0.3-0.2 0.2-0.4 0.3-0.5 0.2-0.1-0.1 0.4-0.6 0.5-0.8 0.1-0.2-0.3-0.8-0.4-0.8-0.2 0.1-0.3-0.3-0.2-0.4 0.2-0.2 0.1-0.9 0.1-0.9 0 0-0.2-0.1-0.3-0.1-0.1 0-1.5 0.6-1.5 0.6 0 0-0.8 0.8-0.8 1-0.1 0.1-0.4 1-0.2 1.5 0.2 0.6 0.7 1.6 0.7 1.6 0 0 0.5 0.4 0.3 0.5-0.2 0.2-0.6 0.8-0.6 0.8h-0.9c0 0-1.8 0.2-1.9 0.3-0.2 0.1-1.8 0.6-1.8 0.8 0.1 0.1-0.3 1.8-0.3 1.8-0.1 0.1-1.8 1.3-2 1.3-0.2 0-1.4 0.3-1.4 0.3 0 0-0.6 1.5-0.6 1.4-0.1-0.1-1.9 0.8-1.9 0.8 0 0-1.4-0.4-1.4-0.5-0.1-0.2-0.5-0.5-0.6-0.4 0 0.1 0.5 1.4 0.5 1.6 0 0.2 0.1 0.7-0.1 0.5-0.1-0.1-0.9-0.3-1.1-0.4-0.2-0.1-1.5-0.1-1.5-0.1h-0.6c0 0-0.6 0.6-0.7 0.5 0-0.1-0.1 0.5-0.1 0.5l0.4 0.4 1.5 0.6 1.3 0.9 0.5 1.2 0.6 1.2c0 0-0.4 2.5-0.4 2.6-0.1 0.1-1 0.7-1 0.7h-2.5c0 0-1.3-0.3-1.4-0.4-0.2 0-2 0.3-2 0.1 0-0.1-0.6-0.1-0.6-0.1l-0.3-0.3h-0.7l-0.6 0.6-0.9 0.1v0.7c0 0 0.4 1.6 0.4 1.5-0.1-0.1-0.2 1.9-0.2 1.9 0 0-0.9 1.8-0.9 1.9 0 0-0.1 1.2-0.1 1.2l0.5 0.8 0.1 1c0 0-0.4 0.9-0.2 0.8 0.1-0.1 1.4 0.1 1.4-0.1 0.1-0.1 0.8-0.5 0.9-0.2 0.2 0.2 0.6 0 0.7 0.5 0.1 0.4 0.6 1.1 0.6 1.2 0.1 0.1 0.4 0.3 0.4 0.3l0.1 0.3-0.2 0.2-1 2.2-2.2 1.6-1.3 0.8-0.4 1-0.5 0.6-0.2 1.3c0 0 0.2 1.5 0.1 1.6-0.1 0.1-3 2.8-3 2.8l-1.6 0.4-0.9 1.5c0 0-1.2 1.1-1.3 1.3 0 0.2-0.6 1-0.6 1 0 0 0 1.6 0 1.3-0.1-0.2-1.8 1.3-1.8 1.3 0 0-0.3 1.9-0.3 2-0.1 0-0.9 1.4-1 1.4-0.2-0.1-0.3 0.9-0.3 1.1 0 0.2 0.4 0.6 0.4 0.6 0 0 0.6 1.1 0.6 1 0-0.1 0 0.4 0 0.4l-0.5 0.5c0 0 0.6 0.9 0.6 1 0 0.2 0 2.5 0 2.5l-0.6 1.4-0.4 1.7-0.9 0.8v0.5l0.9 0.6 0.1 0.8-0.3 0.8v0.9l0.6 1.4c0 0 0.6 0.4 0.7 0.3 0.2-0.1 1.4 0.8 1.5 1.1 0.2 0.2 1.7 2 1.7 2.1 0 0 0.2 0.4 0.2 0.4l0.7 2.5c0 0 3.5 2.8 3.6 2.7 0-0.1 3.7 2.6 3.7 2.6 0 0 2.9-1.4 2.8-1.3 0 0.1 2.5-0.1 2.5-0.1l1.5 0.2 1.1 0.5 4.1-1.8 0.8-0.6 3.1-0.2 1.5 0.6c0 0 1 1.5 1 1.8 0 0.2 0.6 1.3 0.7 1.1 0.1-0.1 3.6-0.3 3.7-0.3 0.1 0.1 1.6 1.5 1.6 1.5l-0.1 1.4-0.2 2.5-0.5 1.2-0.5 1.1-0.1 0.7c0 0 3.6 5.3 3.6 5.3 0 0.1 0.9 2.2 0.9 2.2l1.1 2.8 0.6 1.5-0.6 0.9 1 2.7-0.3 2.6-1.6 3.4-0.6 2.5 0.1 3.3 1.9 3.9 2 4.4 0.2 4.9 1.5 2.9 1.1 2.3 1.1 2.6 0.6 0.8c0 0 0.1 1.2-0.1 1.2-0.1 0-0.7 0.1-0.5 0.3 0.1 0.2 1.1 1.8 1.1 1.8v0.8l1.3 0.7 1.1-0.5c0 0 1.1-0.2 1.2-0.2 0.1 0 1.7-0.5 1.7-0.5l2.4 0.3 1.7-0.8 1.8-0.2c0 0 3.1-3 3.1-2.9 0 0 2.9-3.8 2.9-3.8l1.5-1.3 0.8-2.5-0.1-1.6c0 0 0.3-0.8 0.6-1 0.3-0.2 3-1.8 3-1.8l0.5-2.6-0.5-2.6c0 0-0.4-1-0.4-1.1 0-0.2 0.3-0.9 0.3-0.9l2.6-2.4c0 0 0.6-0.7 0.9-1 0.3-0.3 2.7-1.3 2.7-1.3l1.7-1.7 0.3-6c0 0-0.6-2.2-0.6-2.4-0.1-0.2-1.2-4-1.2-4.2 0-0.1-0.4-2.4-0.5-2.6 0-0.2 0.9-2.9 0.9-2.9l1.4-2.6 5.3-6.2 3.1-2.4 4.5-7.5 1.5-3.5 0.3-3.5-0.9-0.1c0 0-0.5 0.5-0.6 0.6-0.1 0.1-2.9 0.3-2.9 0.3l-3.3 1-1.7 0.6-1.6-1.7 0.3-1.2-2.2-2.6-3-3c0 0-1.5-1.1-1.4-1.3 0.1-0.1-0.9-2.9-0.9-2.8 0 0.1-1.5-1.4-1.5-1.4v-2.7l-1.7-2.6-1.7-3.3c0 0-1.6-3.7-1.7-3.9-0.2-0.2-0.8-1.2-0.6-1.2 0.2 0.1 1.7-0.1 1.7-0.1 0 0 2.6 3.1 2.6 3.3 0 0.1 1.6 2.8 1.6 2.8 0 0 1.2 1.7 1.2 1.5 0-0.1 0.3 1.6 0.3 1.7-0.1 0.1 0.7 2 0.7 2l2.2 2 0.5 1.5 2.1 2.2 0.4 1.5-1.4-1.3c0 0-0.4 0.7-0.3 0.8 0.2 0.2 1.6 1.6 1.6 1.6l0.7 2.1 0.5 1.9 0.7 0.6 2.3-0.4 0.4-0.9h2.1l1-0.7 1.2-0.2c0 0 0.9-0.9 1-0.9 0.1-0.1 3.6-1.6 3.6-1.6 0 0 0.1-1.2 0.3-1.2 0.1 0 3.7-1.1 3.7-1.1l0.3-1.4h1.3l0.3-0.9 1.3-0.8 0.1-2 1 0.3 0.2-0.7-0.3-0.4 1.4-2.1 0.1-0.7-1.4-1.2-0.6-0.7c0 0-2.2-0.2-2.3-0.4-0.1-0.2-0.9-2.1-0.9-2.1 0-0.6 0.1-1.6-0.1-1.6-0.1 0.1-0.8 0.9-0.8 0.9l-2.4 2.2-2.2 0.6c0 0-0.7-0.2-0.7-0.3-0.1-0.1-0.2-2-0.2-2 0 0-0.9-1-0.9-1.2-0.1-0.2-0.7 1.4-0.7 1.4 0 0-1.1-1.4-1-1.4 0.2-0.1-0.4-1.4-0.4-1.4l-2.1-2.4-0.1-1.3c0 0 1-1 1.1-1.1 0.2 0 1.6-0.2 1.8 0.3 0.2 0.5 1.3 2.3 1.3 2.5 0 0.3 1.9 1.8 2.1 1.8 0.2 0 0.9 0.4 1.1 0.5 0.3 0.2 0.7 0.5 0.9 0.7 0.2 0.2 0.8 0 0.8 0l1.3-0.2c0 0 1.1-1 1.1-0.8 0 0.2 1.3 0.3 1.1 0.6-0.2 0.2 0.1 1 0.2 1.3 0.1 0.2 5.5 1.1 5.5 1.1l2.4 0.3c0 0 2.7-0.3 2.8-0.3 0.2 0 1.9 0.2 2 0.2 0.2-0.1 2.6 2.5 2.6 2.5l2.2 1.2 0.5-0.1-1.3 0.6c0 0 0.5 1 0.5 1.1 0 0.1 2.2 1.7 2.2 1.7 0 0 0.8-0.5 0.9-0.5 0.1 0 0.7-0.2 0.7-0.5 0.1-0.3-0.1-1.1 0.1-1.1 0.2-0.1 0.5-0.4 0.5 0 0.1 0.4 0.6 3.8 0.5 3.8-0.1 0.1 0.7 2.6 0.7 2.7 0 0.1 0.9 3.3 1 3.4 0 0.1 1.7 3.6 1.8 3.7 0.1 0.1 1.7 4.3 1.7 4.3 0 0 0.9 1.7 0.9 2-0.1 0.3 0.3 1.6 0.5 1.8 0.3 0.1 1.3 0.5 1.3 0.5 0 0 0.6-0.5 0.7-0.7 0-0.1 0.5-0.8 0.6-1.1 0.2-0.2 0.9-0.3 0.9-0.1 0.1 0.1 0.9 0.5 0.9 0.5l-0.1 2c0 0 0.2 1.2 0.3 1.7 0.1 0.5 1.1 0.9 1.1 0.9l1.2-1.1 0.5-1.8-1.2-1.8c0 0-0.9-1-1-1.1-0.1-0.1-0.9-0.2-0.9-0.2 0 0 0.1 0.4 0.2 0.5 0.1 0.2-0.2 0.2-0.2 0.2l-0.9-0.3 0.2-1.1c0 0 0.7-0.1 0.8-0.1 0.1 0-0.1-1.6-0.1-1.6 0 0 0.3-2.8 0.3-2.9 0.1-0.1-0.1-2.9-0.4-3-0.3-0.1 0-1 0.2-1.1 0.1 0 1.7-0.6 1.7-0.6l0.9-1.7c0 0 1.5-1.1 1.6-1.1 0.1-0.1 1.9-2 1.9-2.3 0-0.2 0.2-0.8 0.7-0.9 0.5-0.1 1.4-0.7 1.4-0.7v-1.3c0 0 0.1-0.6 0.5-0.8 0.3-0.2 1.3-0.3 1.3-0.3 0 0 0.2 0.5 0 0.6-0.1 0.1 2.1-0.6 2.1-0.6 0 0 0.9 0 1.1 0 0.2-0.1 0.6-0.8 0.6-0.8 0 0-0.2-0.6 0.1-0.5 0.3 0.2 1 0.9 0.9 1-0.1 0.2 0.4 1 0.3 1.3-0.2 0.3 1.8 2.4 1.8 2.4 0 0 0.9-0.4 0.9-0.1-0.1 0.3-0.3 1.3-0.3 1.3 0 0 0.6 0.4 0.8 0.5 0.3 0 0.9 1.3 0.9 1.3 0 0-0.1 1.2-0.1 1.4 0 0.1 0.1 1.3 0 1.5 0 0.2 1.7 0.6 1.7 0.6 0 0 1.3-1.1 1.4-1.2zm-143.2-57l-0.7 0.4-0.2 0.8 0.6 0.3 0.9 0.2 1-0.2 0.9-0.5 0.2-0.2 1.4-0.1 0.2-0.6 0.3-0.6v-1.7l0.7-0.4-0.2-1.2-1.2-0.2-1-0.2-0.6 0.2-0.4 0.5c0 0-0.5 0.7-0.4 0.5 0.1-0.1 0.4-0.1 0.3 0.1 0 0.2-0.4 0.4-0.4 0.4h-0.4l-0.4-0.2-0.6 0.1-0.2 0.3 0.2 0.6-0.4 0.4 0.5 0.4 0.5 0.1-0.1 0.6zm4.7-4.7c0.3 0.1 0.4 0.2 0.4 0.4-0.1 0.1 0.6 0.2 0.6 0.2l0.5-0.2-0.4 0.6c0 0 0.1 0.4 0.2 0.5 0.2 0.2 0.6 0 0.6 0 0 0 0.9-0.1 1-0.1 0.1 0 0 0.4 0 0.4l0.4 0.5c0 0 0.1 0.8 0.2 1.1 0 0.2-0.3 0.1-0.3 0.1 0 0-0.8 0.2-0.9 0.1-0.2 0-0.5 0.3-0.8 0.6-0.3 0.3 0 0.2 0 0.2h0.6c0 0 0.1 0.4 0.1 0.6 0.1 0.1-0.5 0.3-0.6 0.3-0.2-0.1-0.9 0.3-0.9 0.3v0.6l0.9 0.1 0.9 0.1 0.2 0.2c0 0-0.6 0.2-0.8 0-0.1-0.1-0.6 0.7-0.6 0.7l-0.4 0.5-1 0.7 0.6 0.2 0.3-0.4 0.8 0.1 0.8-0.2c0 0 0.6-0.6 0.7-0.6 0.1 0 1.3 0 1.3 0 0 0 1-0.2 1.2-0.2 0.1 0.1 0.9 0.3 1 0.3 0.1 0.1 1.7-0.4 1.7-0.4 0 0 0.3-0.5 0.4-0.7 0-0.1-0.5-0.3-0.6-0.4-0.1-0.1 0.4-0.3 0.6-0.4 0.3-0.1 0.4-0.6 0.5-0.8 0.1-0.2-0.2-0.6-0.2-0.7-0.1-0.1-0.6-0.1-0.8-0.1-0.1-0.1-0.8 0-0.8 0v-0.8c0 0-1.8-2.5-1.8-2.6 0-0.2-0.4-0.9-0.6-1q-0.3 0-0.7-0.5c-0.3-0.3 0.3-0.7 0.3-0.7 0 0 0.7-0.7 0.8-0.9 0-0.1-0.1-0.6-0.2-0.7-0.2 0-1.6 0.1-1.6 0.1 0 0-0.3-0.3-0.3-0.4 0-0.2 0.4-0.2 0.5-0.2 0.2 0 0.9-1.4 1-1.4 0.2-0.1-0.1-0.4-0.1-0.4l-0.5 0.2-0.6 0.8c0 0-0.4 0.1-0.6 0-0.2-0.2-0.6 0-0.8-0.1-0.1 0-0.5 0.5-0.5 0.5 0 0-0.6 0.6-0.7 0.6-0.2 0.1-0.7 0.7-0.7 0.7 0 0.1 0.1 0.6 0.1 0.6 0 0-0.1 0.2-0.3 0.2-0.2 0.1 0.1 0.8 0.1 0.8l0.5 0.2c0 0-0.3 0.3-0.4 0.2-0.2 0-0.6 0.4-0.3 0.6zm187.4-8.7q0 0-0.1 0 0.1 0 0.1 0zm-198-2.9l3.3-1.1 0.7-1.3-1.3-1.1-6.1 0.7-1.8-1.1-2.1 1.2c0 0 1.1 0.5 1.4 0.8 0.4 0.2 1.1-0.3 1.1-0.3v1.1c0 0 1.9 1.1 1.7 1.4-0.3 0.4 3.1-0.3 3.1-0.3zm31 14l1.3-1.1 0.3-1.1c0 0 1.2 0.2 1.2 0.4 0.1 0.2 0.4-0.4 0.7-0.1 0.3 0.3 0.7 0.2 0.7 0.5 0.1 0.2 0.3 0.5 0.4 0.3 0-0.1 0-0.6 0-0.6 0 0-0.4-0.2-0.6-0.3-0.2-0.2-0.1-0.5 0.1-0.6 0.2-0.2 0.7-0.5 0.9-0.4 0.2 0.2 0.9-0.1 0.9-0.1 0 0 0.1-0.3 0.2-0.4 0.1-0.1 0.5-1.2 0.5-1.2 0 0-0.3-0.1-0.4-0.5-0.1-0.3 0.4-1.3 0.6-1.4 0.1 0 1.6-0.9 1.6-0.9 0 0 0.6-0.7 0.4-0.9-0.3-0.2-2-1.1-2-1.3 0-0.2-0.2-1.2-0.1-1.6 0.1-0.4 0.8-1.1 0.9-1.3 0.1-0.2 1-1.2 1.2-1.2 0.1 0 0.7-0.1 0.9-0.2 0.2 0 1.5-0.7 1.3-0.7-0.2-0.1 0.1-0.8 0-0.7-0.2 0 0.1-0.9 0.4-1 0.2-0.1 0.7-0.5 0.8-0.5 0.2 0 1.1 0.1 1.4 0.1 0.2 0.1 1-0.3 1.2 0 0.1 0.4 0.4 0.5 0.1 0.6-0.3 0.1-0.9 0.7-1.3 1-0.4 0.4-1.6 1.2-1.8 1.2-0.1 0-0.2 0.1-0.5 0.3-0.3 0.2-0.3-0.3-0.4 0.5-0.1 0.8-0.2 1.6-0.1 1.9 0.2 0.3 0.3 0.7 0.2 0.9-0.2 0.2-0.1 0.3 0 0.7 0 0.3 0.5 0.5 0.5 0.6 0.1 0.2 0.7 0.5 0.7 0.5 0.3 0 0.7-0.1 0.8 0.1 0 0.2 0.2 0.1 0.2 0.1l0.7-0.2c0 0 0.7-0.4 0.9-0.3 0.2 0 0.6-0.1 0.8 0 0.3 0 1.5-0.4 1.7-0.3 0.1 0 1.2-0.5 1.3-0.3 0.1 0.2 0.7 0.1 0.7 0.1l0.5 0.4c0 0.2-0.5 0.8-0.6 0.9-0.1 0-0.5 0.4-0.8 0.3-0.2-0.1-0.4 0-0.7-0.1-0.3-0.1-0.9-0.3-1.1-0.3-0.1 0-2 0.5-2 0.5l-1 0.2-0.1 0.6 0.1 0.1 1 0.6c0 0.2 0.4 0.1 0.3 0.6-0.1 0.4-0.1 0.6-0.3 0.9-0.1 0.2-0.6 0.7-0.7 0.4-0.1-0.3-0.7-0.8-0.9-0.9-0.1-0.2-0.6-0.1-0.9-0.1-0.3 0-0.8 0.4-0.8 0.9 0 0.4-0.3 1-0.2 1.4 0.2 0.4 0.7 1 0.4 1.3-0.2 0.3-0.8 0.5-1 0.6-0.2 0.1-0.8 0.5-1 0.6-0.2 0-0.8 0.3-0.9 0-0.1-0.3-0.4-0.7-0.4-0.7 0 0-0.2-0.4-0.3-0.3 0 0.1-0.5 0.2-0.5 0.2l-1 0.4c0 0-0.6 0.4-0.7 0.4-0.1 0.1-0.7 0.1-0.9 0.2-0.3 0.2-1 0.8-1.2 0.5-0.2-0.3-0.3 0.2-0.6-0.3-0.2-0.4-0.1-0.9-0.4-0.8-0.3 0.1-0.9 0.3-1 0.4-0.1 0.2-0.1 0.2-0.3 0.3-0.2 0.2-1.3 0.3-1.3 0.3 0 0 0-0.1 0-0.1zm33 29.5c-0.3 0.8-0.3 1.8-0.7 2.6-0.5 0.8-0.6 1.2-0.9 1.7-0.3 0.4-0.3 1.1-0.8 1.4-0.5 0.3-1.2 0.7-1.6 0.4-0.4-0.3-2.1-0.2-2.3-0.2-0.2 0.1-2.2 0-2.4 0.4-0.3 0.4-1.8 0.1-2.1 0-0.2-0.1-3.1-1.3-3.4-1.4-0.2 0-1.7-0.7-2-0.9-0.2-0.2-1.7-0.3-1.7-0.5-0.1-0.2 0.1-0.4-0.2-0.4-0.2 0.1-1.9 0.6-2.2 0.8-0.2 0.2-0.7 0.7-0.7 0.7 0 0-0.8 0.7-0.7 1.2 0.1 0.6 0.7 1 0.5 1.3-0.3 0.3-1.1 0.6-1.1 0.6 0 0-0.9-0.8-1.2-0.9-0.3-0.1-3.1-0.6-3.1-0.6l-1.1-1.3c0 0-1.8-1.2-2-1.2-0.2-0.1-2.2 0-2.5-0.3-0.3-0.2-1.2-1.5-1.7-1.4-0.5 0.1-0.3-0.7-0.1-0.8 0.2-0.2 0.7-1.2 0.6-1.4 0-0.1 0.3-1.1-0.3-1.4-0.6-0.4-0.1-1.4-0.1-1.4 0 0 0.6-0.1 0.3-0.1-0.2 0-1.1 0.1-1.4-0.2-0.2-0.3-0.3-0.4-0.5-0.3-0.2 0.1-1.7 0.3-1.9 0.3-0.2-0.1-1.6 0.1-1.9 0.1-0.2 0 0.1 0.1-0.2 0-0.3-0.1-1.5 0.5-1.6 0.7 0 0.2-1.2 0-1.4 0-0.2 0.1-1.9 0.1-1.9 0.1l-2.9 0.4c0 0-1.9 1-1.9 1.3-0.1 0.3-0.7 0.8-0.9 0.9-0.1 0.1-1.2 0-1.3-0.2 0-0.2-2 0.1-2 0.1 0 0-0.7-0.4-1-0.3-0.2 0.2-0.2-0.7-0.2-0.7l0.3-0.7 1.1-0.8 2.5-0.4 1.3-0.9 0.8-0.3 0.4-1.2c0 0 0.9-0.2 0.9-0.4-0.1-0.2-0.3-1-0.3-1l1.7-2.7 2.5-1.2 0.4-0.8c0 0-0.3-1.1-0.1-1.3 0.2-0.2 1.8-0.5 1.8-0.5l2 0.6c0 0 1.1-0.7 1.4-0.8 0.2-0.1 1.3-0.8 1.3-0.8 0 0 0.1-0.5 0.4-0.5 0.2 0.1 1.2-0.1 1.4 0.3 0.1 0.5 1 2 1 2l1.4 1.5 1.3 1 1.6 0.6c0 0 0.9 0.8 1.1 0.9 0.2 0 1.1 1 1.1 1l0.5 0.9c0 0-0.3 0.6-0.6 0.9-0.2 0.3-0.9 1.1-1.1 1-0.2 0-1.6-0.3-1.6-0.3l-1.5 0.2c0 0-0.2 0.4 0.2 0.7 0.4 0.3 0.9 0.2 1.3 0.5 0.5 0.2 1.5 0.7 1.5 0.7 0 0 0.8 0.1 0.8 0.3 0 0.2 0.2-0.5 0.1-0.9 0-0.4-0.1-1 0.3-1.1 0.5-0.1 1.1 0 1.1-0.2 0-0.2 0.2-0.4 0.2-0.4l0.5-0.6v-0.5l0.5-0.4c0 0-0.3-0.3-0.5-0.6-0.3-0.3-0.5-0.5-0.3-0.8 0.1-0.3 0.7-0.7 1-0.5 0.3 0.2 1.2 0.4 1.2 0.7-0.1 0.3 0 0.7 0.1 0.4 0.1-0.2 0.1-1.2 0.1-1.2 0 0-0.5-0.6-0.9-0.7-0.5 0-1.5-0.6-1.8-0.7-0.3-0.1-0.9-0.4-0.9-0.4 0 0 0.3-0.7-0.1-0.6-0.3 0.1-1.4-0.1-1.4-0.3 0-0.2-1.1-1-1.2-1.2 0-0.2-1-1.5-1-1.5 0 0-0.5-0.5-0.6-0.7 0-0.2-0.1-0.5-0.2-1-0.1-0.4 1.2-1.6 1.1-1.5 0 0.2 0.3 0.5 0.6 1 0.2 0.5 1.2 1.4 1.3 1.8 0.1 0.3 1.4 1.4 1.7 1.5 0.3 0.1 0.5 0.5 1.1 0.7 0.6 0.2 0.5 0.3 1.3 0.7 0.8 0.4 0.9 0.5 1 0.7 0.1 0.1 0.6 0.1 0.8 0.4 0.2 0.3 0.4 0.3 0.4 0.6 0 0.3 0.3 0.3 0.1 0.9-0.1 0.6-0.3 0.8-0.2 0.9 0.1 0.2 1.1 2.4 1.5 2.4 0.5 0 1.7 0.4 1.5 1.2-0.1 0.7 0.8 1.6 0.8 1.6 0 0 0.8 0.1 1.4 0.2 0-0.4-0.1-1.1 0.4-1.4 0.5-0.3 1.3-0.6 1.1-0.9-0.1-0.3-0.2-0.8-0.7-1.2-0.4-0.3-0.9-0.5-1-1.1-0.2-0.6-0.3-1.4 0.2-1.1 0.5 0.2 1 1.4 1.2 0.6 0.3-0.8 0.9-1.3 1.3-1.2 0.4 0.2 1.2 0.5 1.1 0.8 0 0.2 0.6 2.1 0.6 2.1 0 0 0.2 0.2 0.3 1.1 0.1 0.9 0.9 1.1 0.8 1.4-0.1 0.3-0.5 0.5 0.5 0.6 0.9 0.1 1.8 0.3 1.8 0.5 0 0.3 0.8 0.4 0.9 0.6 0.2 0.2 0.9 0.5 1 0.2 0.1-0.4 0.3-1.1 0.5-1 0.2 0.1 1.7 0.1 1.8 0.6 0.1 0.5 1.2 0.5 1.2 0.6 0 0.1 0.9-0.3 0.9-0.3 0 0 1.2-0.9 1.6-0.8 0.3 0.2 1.3-0.6 1.2 0.2-0.1 0.7 0.7 1.4 0.4 2.2zm6-10.5c-0.2 0.2-1.4 1.3-1.4 1.3l-2.2-0.3h-1.6l-1.3-0.5c0 0-0.9-0.3-1.1-0.4-0.2-0.2-1.3-0.6-1.3-0.6l-2.4 0.5-1.8 0.5-0.7 0.6-2.2-0.5-1.3-0.7-0.7-0.7h0.6l-0.2-1 0.1-0.6 0.6-0.4 0.4-1.7 0.7-0.3 0.2-0.9c0 0 0.6-0.6 0.8-0.7 0.2-0.2 0.8-1.1 0.8-1.1l1.4 0.6c0 0 1.5 0.2 1.3 0.3-0.3 0-1 0.9-1 0.9 0 0 0.5 0.3 0.8 0.5 0.2 0.1 0.8 0.4 0.6 0.8-0.1 0.3 0.9 0.3 0.9 0.3l0.4-0.6 1.7-0.4 0.6-0.3-1-0.3c0 0-0.8-0.3-0.7-0.5 0.1-0.2 0.9-1.4 0.9-1.4 0 0 2-0.6 2.1-0.6 0.2 0 1.4-0.2 1.4-0.2 0 0-0.9 0.9-1.1 1.1-0.1 0.2 0.1 0.8-0.2 1-0.3 0.3-0.7 0.5-0.9 0.6-0.2 0-0.1 0.6 0.1 0.7 0.2 0.1 0.8 0.3 0.8 0.3l2.6 1.4 1.6 1.6 1.3 1c0 0 0.5 0.5 0.4 0.7zm15.1 7.9l-1.5 0.2c0 0-1.3-0.6-1.3-0.8-0.1-0.2-0.4-0.8-0.6-0.7-0.2 0.2-0.8 0.2-0.9 0.2-0.2-0.1-0.9-0.6-0.9-0.9 0-0.2-0.2-0.8 0.1-1 0.4-0.2 0.9-0.6 0.8-0.8-0.1-0.2-0.2-1-0.2-1.1 0-0.1 0-0.2 0.4-0.3 0.4-0.1 0.4-0.1 0.4-0.1 0 0 0.1-0.3-0.1-0.5-0.2-0.2-1.3-1-1.4-1.1-0.1-0.2-1.4-1.5-1.6-1.7-0.2-0.1-0.9-0.7-0.9-0.7l-0.5-0.9 0.4-1.1-1.1-0.2-0.2-0.8v-0.2l1.1-1.3c0 0 0.8-0.4 1-0.3 0.2 0.1 0.6-0.4 0.6-0.5 0.1-0.2 1.2-1 1.5-1.1 0.2-0.1 0.6-0.7 0.9-0.4 0.2 0.3 1.7 0.8 1.7 0.8 0 0 0.5 0.1 0.5 0.4-0.1 0.2-0.6 1.8-0.6 1.8 0 0-1-0.3-1.2-0.3-0.1 0.1-0.9 0.4-0.7 0.8 0.1 0.5-0.7 0.2-0.6 0.5 0 0.2 0.2 0.6 0.3 0.7 0.2 0.1 1.2 0.6 1.3 1 0.2 0.4 1.8 1.4 1.8 1.4 0 0 0.2 0.2 0.2 0.4-0.1 0.2-0.2 1.5 0 1.5 0.1 0 0.5-0.1 0.5-0.1 0 0 0.6-1.1 0.8-1 0.1 0.1 0.9 0.7 1 1.1 0.2 0.4 0.6 0.8 0.4 0.9-0.2 0.2-1 0.1-1.3 0.1-0.2 0-0.6-0.3-0.7-0.2-0.2 0.1-0.4 0.4-0.2 0.8 0.2 0.4 0.5 0.9 0.7 1 0.2 0.1 0.4 0.1 0.9 0.6 0.5 0.4 0.7 0.7 0.5 1.2-0.1 0.5 0 1 0 1.2 0.1 0.2 0.2 0.6 0.3 0.8 0.2 0.2 0.2 0.4 0.2 0.4zm-21.6-47.8q0 0-0.1 0 0 0 0.1 0zm145.2 12.4q0 0 0 0 0 0 0 0zm-107.8-20.2q0 0 0.1 0-0.1 0-0.1-0.1c0-0.1 0 0.1 0 0.1zm-16.9 133.5c0 0-1.3 1.4-1.4 1.7 0 0.2-1.1 1.5-1.2 1.9-0.2 0.4-1.5 1.2-1.5 1.2l-2.3 1c0 0-0.8 0.1-0.5 0.4 0 0-0.2 0.6-0.7 1.4-0.6 0.7 0 1.6 0 1.6l0.3 1.6v1.5c0 0-0.5 1.7-0.7 1.8-0.3 0.1-0.7 0.5-0.9 1.3-0.3 0.8-0.2 1.4-0.2 1.4 0 0 0.2 1.2-0.1 1.4-0.2 0.3 0.4 1.5 0.7 1.9 0.2 0.4 0.9 0.6 0.9 0.6 0 0 0.5 0.5 0.8 0.6 0.2 0.2 1.4-0.3 1.4-0.3 0 0 0.9-0.4 1.1-0.5 0.2-0.2 0.4-0.3 0.9-1.1 0.5-0.8 0.1-0.5 0.2-0.8 0.1-0.2 0.6-1.2 0.8-2.6 0.2-1.4 0.3-1.3 0.6-2.5 0.4-1.2 0.8-1.5 0.8-2.4 0.1-1 0.2-1.4 0.3-1.7 0.1-0.3 0.9-1.5 0.9-2.3 0.1-0.8 0.1-1.2 0-1.5-0.2-0.4 0.9-0.1 1.1-0.6 0.1-0.5 0 0 0.1-0.2 0-0.3 0.1-1.8 0.1-2.7 0-0.8-0.9-2.2-0.9-2.4-0.1-0.3-0.6 0.3-0.6 0.3zm79.6-11.6c0.2-0.6 0-0.7-0.2-1-0.1-0.3 0.3-1.7 1-2.3 0.6-0.6-0.3-0.7-0.3-0.7l-1 0.2-0.9-1.7c0 0-1.5-1.2-2-1.5-0.4-0.3 0.8-0.9 0.8-0.9 0 0-2.7-2.6-3.1-2.6-0.3 0-1.9-1.3-2.1-1.3-0.3-0.1-1.5-2.3-1.5-2.3l-5.5-2.7c0 0-0.7 0.7-0.7 1 0 0.3 1 0.5 1 0.5 0 0 0.3 0.2 0.6 0.4 0.3 0.1 1.3 0.9 1.4 1.5 0.1 0.5 0.2 0.8 0.8 1.3 0.5 0.5 1.5 0.7 1.5 0.7 0 0 0.4 1.4 0.7 1.6 0.3 0.1 0.6 0.8 0.7 1.2 0.2 0.4 1.7 2.9 1.6 3.8-0.1 0.9 1.1 2.9 1.1 2.9 0 0 2.7 2.2 2.8 2.5 0.1 0.3 2.1 0.9 2.1 0.9 0 0 0.9-0.8 1.2-1.5zm18.5-16.3c0-0.3-0.9-1-1.1-1.4-0.3-0.3-1.7-1.5-2-1.8-0.4-0.2 0 0-0.5 0.9-0.5 0.9-1 1.9-1.3 2-0.2 0.1-2 1.2-2.5 1.7-0.4 0.6-1.4 2-1.7 1.8-0.3-0.2-1.7 1-1.7 1l-0.7 1.8-2.2-0.5 0.1 0.7c0 0-0.7 1.1-0.5 1.4 0.1 0.2 0 1.1 0.2 1.6 0.2 0.4 0.5 0.8 0.9 1.1 0.4 0.3 0.5 1.3 0.2 2.1-0.2 0.8 0.3 1 0.7 1.3 0.3 0.3 1 0.4 1.3 0.2 0.3-0.3 1-0.3 1.4-0.1 0.4 0.2 1.4 0.2 1.7 0.6 0.3 0.4 1.6 0.2 1.9 0.4 0.2 0.3 1.5-0.2 1.8-0.5 0.3-0.4 0-1 0-2 0-1.1 0.1-1 0.7-1.4 0.6-0.4 1-0.7 1-1.3 0.1-0.5 0.3-1.5 0.3-1.9 0-0.5 1.3-0.4 1.5-0.6 0.2-0.2-0.2-0.5-0.2-0.7 0-0.3-1-1.4-1.2-1.8-0.3-0.4 0.4-2.4 0.8-2.7 0.4-0.3 1.1-1.6 1.1-1.9zm-11.2 21.4c0.3 0.1 0.8 0.1 2 0.4 1.2 0.3 2.3 0.4 2.5 0.7 0.1 0.4 1.2 0 1.7 0 0.4-0.1 1.5-1.1 2.3-0.4 0.7 0.8 2.1 0.3 2.4 0.4 0.2 0.2 0.9-0.4 1.8-0.3 0.9 0.1 0.9 0.3 1.2 0.3 0.2 0 1 0.3 1.4 0.2 0.4-0.1 0.9-0.6 1.6-0.5 0.7 0.1 2.6-0.5 2.6-0.5 0 0 0 0-0.4 0.4-0.5 0.3-2.1 1.5-2.1 1.5 0 0-0.3-0.2-0.3 0.3-0.1 0.5-0.6 1.4-0.1 1 0.5-0.4 2.1-1.8 2.5-2.1 0.4-0.3 0.6-0.5 1-0.7 0.4-0.3 1.3-0.5 1.3-0.5l0.5-0.4c0 0-0.5-0.3-0.7-0.2-0.2 0-0.6-0.4-1.2-0.1-0.5 0.2-2.1 0.5-2.1 0.5 0 0-0.9 0.1-1.5-0.1-0.5-0.3-1.2-0.7-1.4-0.3-0.2 0.3-1.6 0.7-1.8 0.7-0.3 0-1.2-0.1-1.8-0.3-0.6-0.1-0.8-0.1-1.1-0.1-0.3 0-0.3-0.3-1.2-0.3-0.9-0.1-1.1-0.4-1.4-0.3-0.2 0.1-0.6 0.2-0.9 0.3-0.3 0.2-1.3 0.2-1.5 0-0.3-0.3-2.7-0.8-2.7-0.8 0 0-0.3-0.4 0.4-0.6 0.8-0.2 0.6-0.2 0.5-0.6-0.1-0.3-1.3-0.3-1.6-0.2-0.3 0.1-1.1 0.2-1.4-0.1-0.3-0.3-1.3-1.1-1.6-0.6-0.3 0.5-0.2 1.1-0.5 1-0.3-0.1-2.4 0.2-2.4-0.1 0-0.2-0.6-0.8-0.8-0.9-0.3-0.1-0.2-0.3-0.6-0.5-0.4-0.1-1.2 0.1-1.2 0.1l-0.8 0.1-0.9 1.1c0 0 2.2 0.2 2.4 0.5 0.3 0.4 1.5 1.3 1.5 1.3 0 0 1.5 0.4 1.9 0.5 0.4 0.1 2.3 0.2 2.5 0.2zm-2.6-44.7c-0.3-0.1-0.9-0.1-0.9-0.1l-0.8 0.3-0.4-0.2-0.9 1.2c0 0 0.3 1.4 0.5 1.4 0.3 0 1.1 0 1.1 0l0.9-0.6 0.5-1.2c0 0 0.2-0.6 0-0.8zm12.9-3.1l0.5-1c0 0 0.2-1 0.3-1.2 0.1-0.2 0.4-1 0.2-1.4-0.3-0.4-0.1-0.9-0.3-1.2-0.1-0.3-0.2-0.8-0.2-0.8l-0.8 0.3c-0.3 0.3-0.8 1.7-0.8 1.7 0 0-0.3 1.5-0.1 1.8 0.2 0.3 0.9 1.2 0.9 1.2zm10 24c0.7 0.2 1 0.1 0.9-0.3-0.1-0.3-0.3-2-0.5-2.6-0.1-0.6 1-1.1-0.2-2.1-1.2-0.9-1.1-0.8-1.2-0.9-0.1-0.1-0.1-0.9-0.1-0.9 0 0 0.2-0.8 0.1-1-0.2-0.3-0.3-0.7-0.5-1-0.2-0.2-0.2-0.3-0.6-0.3-0.5 0-0.5-0.6-0.8-0.5-0.3 0.1-1.1 0.7-0.6-0.2 0.6-1 0.3-1.1 0.3-1.3 0-0.2-0.5-0.4-0.8-0.5-0.4-0.1-0.8-0.5-1.3-0.4-0.6 0.2-0.8-0.2-1.1-0.2-0.4 0-0.5-0.4-0.6-0.9-0.1-0.5 0.1-1.4 0.1-1.7 0-0.2 0.5-0.9 0.5-0.9 0 0 0.1-0.3 0-0.9-0.2-0.6-0.5-1.5-0.5-1.9 0-0.4-0.9-0.8-0.9-0.8l-1 0.4-0.4 3.5c0 0-0.7 0.2-0.7 0.6 0.1 0.3 0.1 1.8 0.5 2.1 0.4 0.3 1.1 0.7 1.1 0.7 0.1 0.4-0.3 1.2-0.3 1.2 0 0 1 1.1 1.1 1.5 0 0.3 0.5 0.1 0.5 0.1 0 0-0.2-2.1 0.2-1.7 0.5 0.4 1.8 0.3 1.9 0.8 0.1 0.4 0.9 0.9 1.1 1.4 0.1 0.5 1.2 0.6 1.1 1-0.1 0.4-0.7 0.4-1.1 0.5-0.4 0.1-1.7-0.9-1.7-0.9 0 0-0.3 0-0.4 0.4-0.1 0.5 0.2 1.7 0.5 2.1 0.3 0.4 0.6 0 0.8 0.2 0.2 0.3 0 0.8 0.2 1.2 0.3 0.3 0.9 0.4 1.2 0.2 0.2-0.2 1-0.6 1-0.6 0 0-0.1-0.9-0.4-1.1-0.3-0.1-0.8-0.6-0.6-0.9 0.3-0.2 0.7-0.7 1-0.6 0.2 0.1 0.8 1.1 0.7 1.4-0.1 0.2 0 0.3 0.3 1.2 0.3 0.8 0.5 0.7 0.1 0.8-0.4 0.2-0.8 0.7-1 0.8q-0.1 0.1-0.1 0.1c0 0-0.2 0-0.6-0.1-1-0.1-0.8-0.5-1-0.1-0.2 0.5-0.5 0.9-0.5 0.9l-0.5 0.3c0 0-0.4 1.2-0.4 1.6 0.1 0.4 0.1 0.4 0.1 0.4 0 0 0.8-1.5 1.1-1.5 0.2 0 0.2 0.4 0.5 0.2 0.3-0.3 0.6-0.1 0.6-0.1 0 0 0.5-0.2 0.4 0.4 0 0.6 0 0.7 0.2 1.4 0.2 0.6 0.9 0.9 1.1 1.1 0.3 0.3 0.6 0.4 0.7 0.6 0.2 0.2 0.3-0.7 0.2-1.3-0.1-0.7-0.4-1.2 0.3-0.9zm-5.6 9.6c0.9 0.5 1.5 0.7 2.2 1 0.7 0.2 1.4-0.5 1.6-0.3 0.1 0.1 0.9-0.6 0.9-0.6 0 0 0.5-0.8 0.4-1 0-0.3-0.1-1-0.3-0.8-0.1 0.3-1.7 1.2-2 1.2-0.3 0.1-1.1-0.2-1.8-0.2-0.7 0-2.5-0.6-2.7-0.3-0.2 0.2-1 1.2-0.9 1.6 0.1 0.4 0 0.6 0 0.9 0 0.2-0.2 1.3-0.2 1l-1.1 2.9c0 0 0.8 2.3 0.8 2.7-0.1 0.4-0.3 2.6 0 2.3 0.2-0.2 1.4-0.3 1.4-0.3 0 0 0.4-1.5 0.3-2.1-0.1-0.7-0.8-2.6-0.2-2.5 0.7 0.2 1.3 1 1.3 1 0 0-0.5 0.5-0.3 0.8 0.2 0.3 0.7 0.7 0.6 1.4 0 0.7 0.3 1 0.3 0.8 0-0.2 0.8 0.2 0.9 0.3 0 0.2 0.8-0.5 0.9-0.5 0-0.2 0.1-1.2-0.1-1.5-0.2-0.3-0.2-0.8-0.8-1.4-0.5-0.7 0.2-0.8-0.4-1.5-0.5-0.7-0.8-0.5-0.5-0.7 0.2-0.3 0.7-0.4 1.1-0.7 0.4-0.2 0.7-0.9 0.7-0.9 0.1-0.2 0.3-0.1-0.4-0.3-0.6-0.1-1.2-0.3-1.6 0.2-0.4 0.5-0.8 0.5-0.8 0.5 0 0 0 0-0.3 0.1-0.3 0.1-0.2-0.5-0.5-0.5-0.2-0.1-0.2-0.2-0.4-0.8-0.1-0.5 0-1.4 0.3-1.5 0.2-0.2 0.8-0.8 1.6-0.3zm2.1 9.3q0 0 0 0 0 0.1 0 0zm31.2 0c0-0.4-0.1-1-0.4-1.4-0.2-0.4-5.4-3.1-6-3.3-0.7-0.3-4-1.3-4-1.3 0 0-1.6 0.6-1.6 0.9 0 0.2-0.8 1.1-1.1 1.4-0.3 0.3-0.2 0.6-0.7 0.5-0.5 0-0.6 0-0.8-0.2-0.3-0.2-0.5-1-0.8-1.3-0.3-0.2-1-0.5-0.8-1.2 0.1-0.6 0.4-1.5-0.1-1.5-0.5 0-1.2 0.3-1.3 0.1-0.2-0.2-1.2-0.1-1.2-0.1l-2 0.5-0.2 0.1c0 0 0.9 1.7 1.4 1.5 0.6-0.2 1.6 1.1 1.6 1.1 0 0-0.3 0.7-0.1 1 0.1 0.2 0.8 1.4 0.8 1.4l1.2-0.1 1.3 0.6 3.4 1.1 1 1.1 0.6 2.4c0 0-1.5 1-1.4 1.4 0.1 0.4 1.8-0.1 1.8-0.1l1.5 0.7 1.7 0.9h2l1.2-1.3c0 0 1.8-1.5 1.8-1.2 0 0.3 1.6 1 1.8 1.7 0.2 0.7 1.7 2 1.7 2 0 0 2 0.6 2.2 0.7 0.2 0.1 0.8 0.1 1.4 0.3 0.5 0.2-0.6-1.4-0.6-1.4 0 0-1.8-1.1-1.8-1.5-0.1-0.4-1.5-1.6-1.5-2 0.1-0.4-0.6-0.8-0.3-0.8 0.3 0 1.6-0.2 1.4-0.4-0.1-0.3-1-1.8-1.4-1.8-0.4 0-1.6 0-1.7-0.5zm2.7 27c0 0-0.8-0.4-0.9-0.3-0.1 0.2-0.4-1.5-0.4-1.5l0.2-0.9c0 0-2.4-3-2.5-2.8-0.1 0.3-0.9-2.4-0.9-2.4l-0.2-3-0.6-1.7-1.4 0.1-0.3-2.8-0.8-2.7-0.4-0.2-0.8 1.8c0 0-0.4 2.6-0.6 3.5-0.2 0.8-0.2 2.1-0.7 2.9-0.5 0.8-1.6 2.7-1.6 2.7 0 0-1.3 0-1.4-0.2-0.2-0.3-1.6-1-1.6-1l-0.9-1.3-1.4-1.1c0 0-1-1.2-1.1-1.2-0.1 0.1 0.7-1.1 1-1.2 0.2-0.2 0.3-1 0.3-1l1.3-1c0 0 0.2-0.4 0-0.7-0.3-0.2-0.3-0.6-0.6-0.7-0.3-0.1-2.1 0.8-2.1 0.8l-1.6-0.7c0 0-1.1-0.6-1.3-1-0.2-0.4-0.9-0.6-1-0.4-0.2 0.1 0 0.9 0 0.9 0 0 0.3 0.7 0.4 0.9-0.1-0.1-0.7 0.3-0.7 0.3l-1.5 0.2-1 0.8-0.7 1.4-0.4 1c0 0 0.3 0.6 0.2 0.5-0.2-0.1-2.3 0.6-2.3 0.6 0 0-0.6-1.2-0.8-1.5-0.3-0.2-1-0.6-1.3-0.6-0.3 0-1.1 0.7-1.1 0.7l-0.3 1.7-1.2-0.3-1.1 1.7-1 0.4-0.5 1.2-0.4-1.3-1.2 1.2-0.4 1.8c0 0-1.5 1.4-1.6 1.7-0.2 0.4-3.5 1.6-3.5 1.6l-2.2 0.7c0 0-1.1 0.2-1.3 0.2-0.3 0-2.4 1.5-2.4 1.5l-0.7 0.7-0.2-0.6-0.9 1v2l-0.9 1.1 0.5 1.9-0.7 0.2-0.6 0.5 0.7 1.4 0.2 2.7c0 0 0.4 0.8 0.3 1.2 0 0.5-0.4 1-0.4 1.3 0 0.3 0.3 1.5 0.3 1.8 0 0.4-0.7 2.4-0.7 2.4l-0.9 1.5h-0.7c0 0 0.1 1.6 0.4 1.6 0.2 0 0.9 0.3 1.6 0.5 0.6 0.3 1.6-0.1 1.9-0.2 0.2-0.1 2-1.1 2-1.1 0 0 1-0.7 1.3-0.6 0.3 0.1 1.8-0.2 2 0 0.2 0.2 2.1 0.1 2.1 0.1l1.1-1.2 3-1.4 1.5-0.1 3.7-1.1 3.1 0.4c0 0 2.6 1.9 2.6 1.7 0-0.1 0.6 1.1 0.6 1.1l-0.2 1.5c0 0 0.9 0.7 1 0.4 0.1-0.2 0.9-1.2 1.2-1.4 0.2-0.2 0.9-0.5 1.5-0.9 0.6-0.4 0.7-0.7 0.7-0.7 0 0-0.5 1.6-0.8 1.6-0.2 0-0.7 0.5-0.9 0.8-0.3 0.3-0.7 0.6-0.7 0.7 0 0.2 0.5 0.2 0.7 0 0.3-0.1 0.7-0.6 1-0.8 0.3-0.1 0.5-0.1 0.4 0.3-0.1 0.4-0.1 0.8-0.4 1-0.3 0.2-0.7 0.4-1.3 0.7-0.5 0.3-0.9 0.1-1.2 0.3-0.2 0.3 0.2 0.5 0.3 0.7 0.2 0.1 0.6 0.6 0.9 0.1 0.3-0.6 0.7-1 1-1.2 0.2-0.1 0.7-0.6 0.7-0.2 0 0.4 0.2 0.8 0.3 1.1 0.1 0.3-0.5 1-0.5 1.1 0.1 0.2 0.9 1.9 0.9 1.9 0 0 0.5 0.7 1 0.7 0.6 0 1.8 0.4 2 0.5 0.3 0 1.4 0 1.6-0.4 0.1-0.3 1.1-0.9 1-0.7-0.1 0.3 0.1 0.7 0.3 1 0.2 0.2 0.6 0.9 0.6 0.9l3-2.4c0 0 2.2-0.4 2.3-0.2 0.1 0.2 1.5-1.6 1.5-1.6l4.6-5.6 1.7-1.2 1.3-1.8 1.7-3.2 1-3.6 0.7-2.7-1.7-2.6zm-17.7 29.7c0 0-1.1-0.7-1.3-0.9v-0.3l-0.8 2.5-0.7 2.6c0 0 1.4 0.2 1.6 0.3 0.1 0 2.5-1.4 2.6-1.7 0.1-0.3 1.7-3 1.7-3 0 0-2.6 0.6-3.1 0.5zm43.2-4.6l-0.8-0.8c0 0 0-1.1-0.2-1.1-0.2 0-0.6 0.1-0.6 0.1l0.4-2.8-1.5-0.9-0.3 4.3-1 2.4-2.1 0.8c0 0 0.9 0.9 1.2 0.9 0.3 0-0.2 0.9-0.2 0.9l-1.4 1.2c0 0-0.5-0.2-0.5-0.9 0-0.6-1.3 0.7-1.3 0.7l-0.8-0.6-2.4 2.1-3.3 1.7-7.6 4.7 1 0.5c0 0 1 0.4 1 0.6 0.1 0.1 2.4-1.1 2.4-1.1l2.7-1.9 1.2-1.1c0 0 2.3-0.6 2.3-0.3-0.1 0.3 0.7-1.5 0.7-1.5l2.2-1.2 1.4-1.4 1.1 0.3 1.6-0.5 2.7-1.8 0.5-1.4 0.8 0.1 1.7-1.2 1.1-1.9zm-321-174.7c0.6 0.2 1 0.3 2.4 0.4 1.3 0 1.5-0.1 2.1 0.1 0.6 0.3 1.2 0.7 1.4 0.1 0.3-0.6 0.6-0.6 0.8-0.9 0.3-0.3 0-0.6 0.4-0.8 0.4-0.1 1.1 0.7 1.1 0.7 0 0-0.8 0.5-0.4 0.6 0.4 0.1 1.5 0.3 2 0.4 0.6 0.1 0.1 0.2 1.1 0.3 0.9 0.1 1.3-0.1 2.5-0.1 1.2 0 1.9-0.5 2.3-0.4 0.4 0.2 1.8 0.2 2.2 0.1 0.4-0.1 1.3-0.9 0.9-0.9-0.4 0-1.9-0.4-2.5-0.5-0.6-0.1-2.6-0.2-3.1 0.1-0.5 0.2-1 0.4-1.4 0.2-0.3-0.2 1.4-1.4 2.5-1.3 1.1 0.2 2.8-0.1 3.3 0 0.6 0 2 0.3 2 0.3 0 0 0.3-0.2 0.4-0.4 0-0.3 0.1-0.5 0.1-0.5l0.8 0.7c0 0 5.3-2.1 5.5-2.5 0.3-0.4 3.6-1.5 4.1-1.4 0.5 0.1 3.7-1.3 4.3-1.1 0.5 0.2 3.5-0.7 3.5-0.7 0 0 2.1-0.5 2.6-0.5 0.5 0 0.7-0.6 0-0.5-0.7 0.1-6.7 0.1-8.1 0-1.4-0.1-5 0-5.5 0.1-0.6 0.1-3.8 1-5.1 0.9-1.4-0.1-5.7 0.5-6 0.5-0.2-0.1-2-0.2-1.8-0.2 0.1 0-2.3 2-2.7 1.4-0.4-0.5 0-0.9-0.4-0.5-0.4 0.4-0.3 2.2-0.3 2.2 0.4 0.3 1.5 1.4 2.2 1 0.7-0.5 1.1-0.3 1.3-0.2 0.3 0.1-1.1 1.1-1.9 1.1-0.8 0-3.3 1-3.3 1 0 0-1.1-1.1-1.4-1.1-0.2-0.1-1.6-0.2-1.8-0.2-0.2 0-0.6-0.2-0.6 0.5-0.1 0.7 0 1.8-0.8 1.6-0.8-0.1-1 0.2-1.4 0-0.4-0.3 0.6-1.5-0.6-1.5-1.1-0.1-1.7-0.9-2.3 0.4-0.7 1.2-1.1 1.2-0.4 1.5zm-28.9 4.9c-0.2 0.4 2.1 0.6 2.3 0.2 0.1-0.3 1.6 0 1.9-0.5 0.3-0.5 1.9-1.4 2.1-1.3 0.3 0.2-0.5 1-0.7 1-0.2 0.1 0.8 0.2-0.2 1-1.1 0.8-0.8 1.5-0.8 1.5 0 0-0.9 0.4-0.3 0.6 0.7 0.1 1.9 0.7 1.9 0.7 0 0 0 0.5 0 0.7 0 0.2 0.4 0.6 1.3 0.1 0.9-0.6 2.6-1.2 2.9-1 0.2 0.3 0.8 0 1.6-0.1 0.8-0.1 1.4-0.3 1.4-0.3l1 0.1c0.5 0.3 0.9-0.3 1.7 0.2 0.8 0.5 1.9 0.5 1.9 0.5 0 0 1.1-0.9 1.4-1 0.2-0.1 0.7-0.2 0.5-0.7-0.3-0.6-1.2-1.5-0.9-1.6 0.2-0.2 0.8-0.3 0.7-1.8-0.1-1.6 0.2-1.3-0.2-1.2-0.4 0-1.4 0.5-1.4 0.5l-0.3-0.1c-0.2 0.5-0.9 0.8-1 1.3-0.2 0.5-0.7 0.7-0.7 0.3 0-0.4-0.5-0.4-0.6-0.8-0.1-0.3-0.8-0.2-1.2-0.1-0.4 0.1-1.5-0.7-1.9-0.4-0.4 0.3-0.8-0.2-1.1-0.9-0.4-0.7-0.8-1.3-1.2-1.2-0.5 0.1-3.5 0-3.5 0l-1.7 0.2c0 0-1 0.2-1 0.7 0 0.5-0.1 0.8-0.6 0.9-0.5 0.2-4 1.5-4 1.5 0 0 1 0.6 0.7 1zm25-1.9l-0.8-0.2c0 0-0.1-0.6-0.4-0.6-0.2 0-0.9 0.9-0.9 0.9 0 0 1 0.4 1.2 0.7 0.1 0.3 0.5 0.7 0.5 0.9 0 0.3 2.7-0.8 2.7-0.8l1.4-0.7c0 0 0.1 0.2 0.2-0.2 0-0.4-0.2-0.7 0-0.8 0.1-0.1 0.8-1.1 0.1-1-0.6 0.2-2 0-2.6 0.3-0.6 0.2-1.4-0.3-1.4 0.3 0.1 0.6 0 1.2 0 1.2zm-12.7-3.7c0 0 0.3 1.4 1 1 0.6-0.4 2.4 0.9 2.4 1.1 0 0.2 0.7 0.1 0.7 0.1l2.7-1 1.6-0.2c0 0 1.5-0.1 1.7 0.1 0.2 0.1 1.4-0.4 1.4-0.4l0.5-0.8-1-0.4 0.2-0.7c0 0-0.3-0.5-1 0-0.7 0.6-2.7 1.7-2.6 1.5 0.2-0.3-0.8 0-1.2-0.4-0.4-0.5-0.9-0.6-0.9-0.6 0 0-1.1-0.4-1.5-0.2-0.4 0.1 0.7-0.8 0.7-0.8 0 0 0.2-0.9-0.2-0.8-0.5 0.1-4.4 0.9-4.4 0.9 0 0-1.7 1-2 0.8-0.3-0.3-1.5 0.1-1.5 0.1l0.8 0.5c0.2-0.3 2.6 0.2 2.6 0.2zm17.8-3.2c0.2 0 2.1 0.6 2.4 0.7 0.2 0.1 0.9 0.2 1.2 0.1 0.3 0 1.6-0.7 1.1-0.9-0.4-0.3-2-0.6-2.3-0.7-0.3-0.2-1.5-0.3-1.5-0.3l-0.7 0.2c-0.2 0.2-0.5 0.8-0.2 0.9zm-7.7 1.3c0.3-0.1 1.4-0.6 1.4-0.6l1-0.8 0.3-0.4c0 0-0.7-0.7-1-0.4-0.3 0.2-2 0.9-2 0.9l-0.1 0.6-1.3 0.6c0 0 1.4 0.3 1.7 0.1zm14.4-0.2c0.3 0.1 1.2 0.1 1.3-0.2 0.1-0.2-0.1-1.9-0.1-1.9 0 0-0.3-0.5-0.7-0.4-0.4 0.1-1.7 0.7-1.7 0.7 0 0.3 0.8 1.7 1.2 1.8zm-20.2 84.9c0-0.2-0.9-0.5-1.4-0.5-0.5 0-2.2-1.7-2.3-2-0.2-0.4-4-1.3-4-1.3 0 0-4.3-0.3-4.3-0.4 0-0.1-2 1.6-2 1.6v0.2c0 0 0.2 0.8 0.2 1 0.1 0.2 1.4-1 1.5-1.4 0.1-0.5 1.1-0.6 1.3-0.7 0.3-0.2 0.4 0.4 0.6 0.4 0.3 0 1.4 0.4 1.4 0.4l2.1 0.7 0.8 0.8c0 0 0.4 1.9 0.4 2.1 0 0.3 1.6 0.2 1.6 0.2l3.2-0.3c0 0 1-0.6 0.9-0.8zm-0.1 4c0.3 0.1 0.8-0.1 1-0.1 0.3 0 1-0.2 1-0.2 0 0 0.3 0.6 0.3 0.8 0 0.1 1.2-0.1 1.2-0.3 0-0.2 0.3-0.6 0.3-0.6l1.5-0.3c0 0 2.1 0 2.2 0 0.2 0 0.3-0.3 0-1-0.4-0.6-1.4-0.8-1.6-1.2-0.3-0.5-1.4-0.2-1.7 0-0.3 0.1-2-0.5-2.5-0.5-0.4 0 0 0.6 0 0.6l-0.1 1.7h-2l-0.1 0.2c0 0-0.5 0.2-0.5 0.5 0 0.4 0.7 0.3 1 0.4z"/></svg>